# xmcd
#
# Track frame offsets: 
#        150
#        30646
#        43354
#        54684
#        67599
#        84424
#        96979
#        108002
#        124524
#        134328
#        145735
#
# Disc length: 2063 seconds
#
# Revision: 0
# Processed by: cddbd v1.5.2PL0 Copyright (c) Steve Scherf et al.
# Submitted via: ExactAudioCopy v1.3
#
DISCID=8f080d0b
DTITLE=Johnny Cash - Christmas with the Johnny Cash Family
DYEAR=1972
DGENRE=Country
TTITLE0=King of Love
TTITLE1=Jingle Bells
TTITLE2=That Christmasy Feeling
TTITLE3=My Merry Christmas Song
TTITLE4=Merry Christmas, Mary
TTITLE5=Christmas Time's a-Coming'
TTITLE6=Christmas With You
TTITLE7=Christmas As I Knew It
TTITLE8=When You're 21
TTITLE9=Old Fashioned Tree
TTITLE10=Silent Night
EXTD=
EXTT0=
EXTT1=
EXTT2=
EXTT3=
EXTT4=
EXTT5=
EXTT6=
EXTT7=
EXTT8=
EXTT9=
EXTT10=
PLAYORDER=
